<svg xmlns="http://www.w3.org/2000/svg" fill-rule="evenodd" stroke-linejoin="round" stroke-miterlimit="2" clip-rule="evenodd" viewBox="0 0 247 209"><g opacity=".3" fill-rule="nonzero"><path fill="#00b4aa" d="M68.002 146.39L.175 88.898V0L55.66 47.058a34.846 34.846 0 0112.341 26.589v72.743"/><path fill="#007fa1" d="M.175 208.8h67.827v-62.41L.175 88.898v119.901m152.61 0h67.828v-5.82c0-10.133-4.515-19.765-12.14-26.287l.501.401c-.2-.2-.401-.301-.602-.502l-55.486-47.057v79.265"/><path fill="#0e5c97" d="M141.548 208.8h11.238v-79.367L56.564 47.86a34.703 34.703 0 0111.438 25.385v73.045l73.546 62.51"/><path fill="#1d4f93" d="M220.613 208.8H246.3l-37.425-31.807c7.425 6.522 11.639 15.953 11.74 25.886v5.92"/></g></svg>
